<svg width="15" height="15" viewBox="0 0 15 15" fill="none" xmlns="http://www.w3.org/2000/svg">
<g clip-path="url(#clip0)">
<path d="M9.94336 7.57684L15.0002 10.7737V4.24496L9.94336 7.57684Z" fill="#25486B"/>
<path d="M0 4.24496V10.7737L5.05687 7.57684L0 4.24496Z" fill="#25486B"/>
<path d="M14.0627 2.34375H0.937695C0.469883 2.34375 0.0986328 2.6925 0.0283203 3.14156L7.50019 8.06437L14.9721 3.14156C14.9017 2.6925 14.5305 2.34375 14.0627 2.34375Z" fill="#25486B"/>
<path d="M9.08465 8.14312L7.75809 9.01687C7.67934 9.06843 7.59028 9.09374 7.50028 9.09374C7.41028 9.09374 7.32121 9.06843 7.24246 9.01687L5.9159 8.14218L0.0302734 11.865C0.102461 12.3103 0.471836 12.6562 0.937774 12.6562H14.0628C14.5287 12.6562 14.8981 12.3103 14.9703 11.865L9.08465 8.14312Z" fill="#25486B"/>
</g>
<defs>
<clipPath id="clip0">
<rect width="15" height="15" fill="white"/>
</clipPath>
</defs>
</svg>
