<svg width="14" height="14" viewBox="0 0 14 14" fill="none" xmlns="http://www.w3.org/2000/svg">
<path d="M11.4038 8.92277C10.9138 8.43896 10.302 8.43896 9.81506 8.92277C9.44362 9.29109 9.07218 9.65941 8.70698 10.034C8.60709 10.137 8.52282 10.1588 8.40108 10.0902C8.16074 9.95906 7.90479 9.85294 7.67381 9.70935C6.59694 9.03202 5.69487 8.16116 4.8958 7.18105C4.49938 6.69412 4.14667 6.17286 3.90008 5.58604C3.85014 5.46743 3.85951 5.3894 3.95627 5.29263C4.32771 4.93368 4.68979 4.56536 5.05499 4.19704C5.56377 3.68514 5.56377 3.08583 5.05187 2.57081C4.76158 2.2774 4.47129 1.99024 4.18101 1.69683C3.88136 1.39718 3.58483 1.09441 3.28205 0.79788C2.792 0.320313 2.18022 0.320313 1.69328 0.801002C1.31872 1.16932 0.959764 1.54701 0.578958 1.90908C0.226244 2.24307 0.0483268 2.65197 0.0108705 3.12953C-0.0484353 3.90675 0.141968 4.64027 0.410404 5.35506C0.959764 6.83458 1.79629 8.14867 2.81073 9.35352C4.18101 10.9829 5.8166 12.272 7.72999 13.2022C8.59149 13.6204 9.48419 13.9419 10.4549 13.995C11.1229 14.0324 11.7035 13.8639 12.1686 13.3426C12.4869 12.9868 12.8459 12.6622 13.183 12.3219C13.6824 11.8163 13.6855 11.2045 13.1892 10.7051C12.5962 10.1089 12 9.51583 11.4038 8.92277Z" fill="#25486B"/>
</svg>
